<?xml version="1.0" encoding="UTF-8" standalone="no"?>
<svg height="24" width="24"
  xmlns="http://www.w3.org/2000/svg">
  <path d="M0 0h24v24H0z" fill="none"/>
  <path d="m 16.959129,12.096147 c 1.432549,0 2.580315,-1.156395 2.580315,-2.5889445 0,-1.4325495 -1.147766,-2.5889448 -2.580315,-2.5889448 -1.432549,0 -2.588945,1.1563953 -2.588945,2.5889448 0,1.4325495 1.156396,2.5889445 2.588945,2.5889445 z m -6.903853,0 c 1.432549,0 2.580315,-1.156395 2.580315,-2.5889445 0,-1.4325495 -1.147766,-2.5889448 -2.580315,-2.5889448 -1.4325495,0 -2.5889448,1.1563953 -2.5889448,2.5889448 0,1.4325495 1.1563953,2.5889445 2.5889448,2.5889445 z m 0,1.725963 c -2.0107471,0 -6.0408712,1.009689 -6.0408712,3.020436 V 19 H 16.096147 v -2.157454 c 0,-2.010747 -4.030124,-3.020436 -6.040871,-3.020436 z m 6.903853,0 c -0.250265,0 -0.535048,0.01726 -0.837092,0.04315 1.001058,0.724905 1.700073,1.700074 1.700073,2.977287 V 19 H 23 V 16.842546 C 23,14.831799 18.969876,13.82211 16.959129,13.82211 Z" id="path60" style="stroke-width:0.862982" />
  <path d="M 4.3921555,10.523161 V 8.3997853 H 2.976571 V 10.523161 H 0.85319455 v 1.415584 H 2.976571 v 2.123376 h 1.4155845 v -2.123376 h 2.1233743 v -1.415584 z" id="path1585" style="stroke-width:0.707793" />
  <path style="stroke-width:0.707793" d="m 0.85319456,5.5429195 v 1.415584 H 6.5155298 v -1.415584 z" id="path1611" />
</svg>
